<svg width="402" height="401" viewBox="0 0 402 401" fill="none" xmlns="http://www.w3.org/2000/svg">
<path d="M394.5 200.5C394.5 307.073 307.885 393.5 201 393.5C94.1153 393.5 7.5 307.073 7.5 200.5C7.5 93.9266 94.1153 7.5 201 7.5C307.885 7.5 394.5 93.9266 394.5 200.5Z" fill="url(#paint0_linear)" stroke="url(#paint1_linear)" stroke-width="15"/>
<path d="M104.697 269.738C119.994 269.738 132.395 258.872 132.395 241.126C132.395 222.021 118.546 212.333 104.697 212.333C90.7582 212.333 77 221.931 77 241.126C77 258.872 89.3099 269.738 104.697 269.738ZM104.697 266.75C95.2839 266.75 86.5945 259.325 86.5945 241.035C86.5945 222.112 96.008 215.321 104.697 215.321C113.296 215.321 122.8 222.021 122.8 241.035C122.8 259.416 114.111 266.75 104.697 266.75Z" fill="black"/>
<path d="M175.841 249.365V230.08H173.941C173.126 236.327 171.587 237.957 164.618 237.957H152.308V219.577C152.308 217.042 152.851 216.679 155.023 216.679H166.518C175.932 216.679 178.104 218.038 179.462 225.372H181.544L181.272 213.51H136.287V215.05C141.627 215.502 143.709 215.955 143.709 222.565V258.51C143.709 265.391 142.623 266.569 136.287 266.931V268.56H160.001V266.931C154.027 266.659 152.308 265.754 152.308 259.506V241.307L164.618 241.488C170.954 241.579 172.945 242.394 173.941 249.365H175.841V249.365Z" fill="black"/>
<path d="M183.807 215.14C189.962 215.774 190.957 216.679 190.957 222.655V258.601C190.957 264.577 190.957 266.569 183.807 267.021V268.651H207.521V267.021C201.004 266.84 199.556 265.663 199.556 259.597V244.476C201.638 244.657 203.177 244.748 205.259 244.748C214.219 244.748 219.56 243.208 223.271 239.858C224.719 238.5 228.43 235.06 228.43 228.631C228.43 218.038 217.93 213.691 206.164 213.691H183.807V215.14V215.14ZM199.556 219.486C199.556 216.679 200.552 216.679 202.996 216.679C206.797 216.679 219.107 216.86 219.107 228.722C219.107 241.307 207.702 241.307 204.625 241.307C202.815 241.307 201.185 241.217 199.556 241.035V219.486Z" fill="black"/>
<path d="M230.964 215.14C237.119 215.774 238.025 216.679 238.025 222.655V258.601C238.025 264.577 238.025 266.569 230.964 267.021V268.651H254.679V267.021C248.162 266.84 246.714 265.663 246.714 259.597V244.476C248.705 244.657 250.335 244.748 252.416 244.748C261.287 244.748 266.718 243.208 270.338 239.858C271.786 238.5 275.497 235.06 275.497 228.631C275.497 218.038 264.998 213.691 253.321 213.691H230.964V215.14ZM246.714 219.486C246.714 216.679 247.619 216.679 250.153 216.679C253.955 216.679 266.265 216.86 266.265 228.722C266.265 241.307 254.86 241.307 251.783 241.307C249.972 241.307 248.343 241.217 246.714 241.035V219.486Z" fill="black"/>
<path d="M315.052 267.021C307.992 266.75 306.906 265.21 306.906 259.597V217.132H311.522C320.845 217.132 323.198 218.671 325.009 227.816H327L326.547 213.691H278.756L278.213 227.816H280.295C282.195 218.762 284.458 217.132 293.781 217.132H298.398V258.691C298.398 264.848 298.126 266.75 290.432 267.112V268.742H315.143V267.021H315.052Z" fill="black"/>
<path fill-rule="evenodd" clip-rule="evenodd" d="M103.521 127.314L136.377 95.0804L169.234 127.314L136.377 159.547L103.521 127.314ZM77.7241 127.404L136.287 70L194.849 127.404L136.287 184.808L77.7241 127.404Z" fill="#008245"/>
<path d="M234.857 102.143L202 70L143.437 127.404L156.2 139.99L202 95.0804L222.004 114.728L234.857 102.143Z" fill="#8A94A0"/>
<path fill-rule="evenodd" clip-rule="evenodd" d="M234.857 127.314L267.623 95.0804L300.479 127.314L267.623 159.547L234.857 127.314ZM209.06 127.404L267.623 70L326.185 127.404L267.623 184.808L209.06 127.404Z" fill="#005AA1"/>
<path d="M169.053 152.756L201.819 184.808L260.382 127.404L247.619 114.819L201.819 159.637L181.906 140.171L169.053 152.756Z" fill="#8A94A0"/>
<path d="M99.0854 310.572H83.9695L84.1506 310.12C85.0557 310.12 85.6893 309.939 86.1419 309.667C86.5944 309.305 86.9565 308.58 87.3186 307.403L90.8486 295.814C91.0296 295.18 91.1201 294.637 91.1201 294.275C91.1201 293.912 90.9391 293.641 90.6676 293.46C90.396 293.279 89.853 293.098 89.0383 293.098L89.2193 292.645H98.2708L98.0897 293.098C97.1846 293.098 96.551 293.279 96.0984 293.641C95.6458 294.003 95.2838 294.727 94.9217 295.814L91.7538 306.407C91.3012 307.766 91.1201 308.58 91.1201 308.852C91.1201 309.033 91.2107 309.214 91.3917 309.395C91.5727 309.576 91.9348 309.667 92.3873 309.667C93.9261 309.667 95.4648 309.305 96.8225 308.671C98.2708 308.037 99.4475 306.951 100.443 305.683H100.986L99.0854 310.572Z" fill="#106AA8"/>
<path d="M116.011 298.44L113.296 307.313L113.024 308.399C113.024 308.49 113.024 308.671 113.024 308.671C113.024 308.761 113.024 308.852 113.115 308.943C113.206 309.033 113.296 309.033 113.387 309.033C113.568 309.033 113.839 308.852 114.201 308.58C114.382 308.49 114.654 308.037 115.197 307.403L115.649 307.675C115.016 308.852 114.292 309.667 113.568 310.21C112.843 310.753 112.029 311.025 111.124 311.025C110.581 311.025 110.219 310.934 109.947 310.663C109.675 310.391 109.494 310.029 109.494 309.667C109.494 309.305 109.675 308.671 109.947 307.765L110.309 306.679C109.223 308.399 108.227 309.667 107.232 310.391C106.688 310.844 106.055 311.025 105.421 311.025C104.607 311.025 103.973 310.663 103.521 310.029C103.158 309.395 102.977 308.58 102.977 307.765C102.977 306.498 103.339 305.049 104.154 303.51C104.969 301.88 105.964 300.613 107.322 299.617C108.408 298.802 109.404 298.44 110.309 298.44C110.852 298.44 111.214 298.621 111.576 298.892C111.848 299.164 112.119 299.707 112.3 300.432L112.843 298.802L116.011 298.44ZM111.576 300.975C111.576 300.25 111.486 299.707 111.214 299.436C111.033 299.255 110.852 299.073 110.49 299.073C110.219 299.073 109.947 299.164 109.585 299.436C108.951 299.979 108.318 301.065 107.594 302.786C106.87 304.506 106.507 305.955 106.507 307.132C106.507 307.584 106.598 307.947 106.779 308.128C106.96 308.309 107.141 308.399 107.322 308.399C107.775 308.399 108.137 308.128 108.589 307.675C109.223 307.041 109.766 306.226 110.219 305.23C111.124 303.691 111.576 302.242 111.576 300.975Z" fill="#106AA8"/>
<path d="M128.231 310.935L128.864 295.904C128.864 294.999 128.864 294.546 128.864 294.546C128.864 294.094 128.774 293.731 128.502 293.46C128.231 293.188 127.778 293.098 127.145 293.007L127.326 292.554H135.291L135.11 293.007C134.386 293.007 133.933 293.188 133.571 293.55C133.209 293.912 133.028 294.727 132.938 295.995L132.485 305.411L139.907 297.263C140.903 296.176 141.446 295.452 141.717 295.09C141.898 294.637 142.079 294.365 142.079 294.003C142.079 293.822 141.989 293.55 141.808 293.369C141.627 293.188 141.174 293.098 140.631 293.007L140.812 292.554H146.062V293.007C145.61 293.098 145.247 293.279 144.976 293.46C144.523 293.731 143.89 294.365 143.075 295.361L128.955 310.935H128.231V310.935Z" fill="#106AA8"/>
<path d="M152.217 298.259C152.941 298.259 153.665 298.44 154.299 298.711C154.933 299.073 155.476 299.526 155.747 300.069C156.109 300.613 156.2 301.246 156.2 301.971C156.2 303.419 155.747 304.868 154.933 306.317C154.118 307.766 152.941 308.852 151.584 309.667C150.226 310.482 148.778 310.935 147.42 310.935C146.153 310.935 145.157 310.572 144.523 309.848C143.799 309.124 143.528 308.218 143.528 307.222C143.528 305.955 143.799 304.868 144.342 303.782C144.886 302.695 145.519 301.79 146.334 300.975C147.148 300.16 148.054 299.526 149.049 298.983C150.045 298.53 151.131 298.259 152.217 298.259ZM151.674 298.983C151.222 298.983 150.769 299.164 150.407 299.436C149.773 299.979 149.049 301.337 148.235 303.329C147.42 305.411 146.967 307.222 146.967 308.852C146.967 309.305 147.058 309.576 147.329 309.848C147.601 310.12 147.873 310.21 148.235 310.21C148.597 310.21 148.959 310.12 149.23 309.848C149.683 309.486 150.135 308.852 150.769 307.675C151.403 306.588 151.855 305.321 152.217 303.963C152.579 302.605 152.76 301.428 152.76 300.25C152.76 299.798 152.67 299.436 152.398 299.164C152.217 299.073 151.946 298.983 151.674 298.983Z" fill="#106AA8"/>
<path d="M164.437 298.259L161.54 307.675C161.359 308.218 161.269 308.58 161.269 308.762C161.269 308.852 161.269 308.943 161.359 309.033C161.45 309.124 161.54 309.124 161.631 309.124C161.812 309.124 161.902 309.033 162.083 308.943C162.536 308.58 162.988 308.037 163.622 307.132L164.075 307.403C162.626 309.757 161.178 310.935 159.549 310.935C158.915 310.935 158.463 310.753 158.101 310.482C157.739 310.12 157.557 309.757 157.557 309.214C157.557 308.852 157.648 308.49 157.829 307.947L159.73 301.609C159.911 300.975 160.001 300.522 160.001 300.25C160.001 300.069 159.911 299.888 159.73 299.707C159.549 299.526 159.277 299.526 159.006 299.526C158.825 299.526 158.734 299.526 158.463 299.526L158.644 298.983L163.35 298.259H164.437ZM163.531 292.102C164.075 292.102 164.618 292.283 164.98 292.645C165.342 293.007 165.613 293.46 165.613 294.003C165.613 294.546 165.432 294.999 164.98 295.361C164.618 295.723 164.075 295.904 163.531 295.904C162.988 295.904 162.536 295.723 162.083 295.361C161.721 294.999 161.45 294.546 161.45 294.003C161.45 293.46 161.631 293.007 162.083 292.645C162.536 292.283 162.988 292.102 163.531 292.102Z" fill="#106AA8"/>
<path d="M169.505 305.593C169.415 306.136 169.415 306.679 169.415 307.041C169.415 307.675 169.596 308.218 170.048 308.671C170.41 309.033 170.954 309.305 171.678 309.305C172.311 309.305 172.945 309.124 173.669 308.852C174.303 308.58 175.117 308.037 175.932 307.313L176.384 307.675C175.298 308.943 174.303 309.757 173.216 310.301C172.221 310.844 171.044 311.116 169.867 311.116C168.329 311.116 167.242 310.753 166.609 310.029C165.975 309.305 165.704 308.49 165.704 307.584C165.704 306.136 166.156 304.687 167.061 303.238C167.967 301.79 169.143 300.613 170.682 299.707C172.221 298.802 173.759 298.349 175.298 298.349C176.113 298.349 176.656 298.53 177.109 298.892C177.471 299.255 177.742 299.707 177.742 300.251C177.742 300.884 177.561 301.518 177.199 302.152C176.656 302.967 176.022 303.691 175.117 304.144C174.303 304.687 173.397 305.049 172.402 305.321C171.587 305.321 170.682 305.502 169.505 305.593ZM169.686 304.868C170.501 304.778 171.135 304.597 171.587 304.415C172.04 304.234 172.492 303.872 172.945 303.42C173.397 302.967 173.759 302.424 174.031 301.79C174.303 301.156 174.484 300.522 174.484 299.888C174.484 299.617 174.393 299.436 174.303 299.345C174.122 299.164 173.941 299.164 173.76 299.164C173.307 299.164 172.854 299.436 172.221 300.069C171.225 301.065 170.32 302.695 169.686 304.868Z" fill="#106AA8"/>
<path d="M200.552 292.102L196.026 306.951C195.754 307.856 195.573 308.399 195.573 308.671C195.573 308.761 195.573 308.852 195.664 308.943C195.754 309.033 195.845 309.033 195.935 309.033C196.116 309.033 196.297 308.943 196.479 308.852C196.841 308.58 197.203 308.128 197.746 307.403L198.289 307.675C197.022 309.848 195.573 310.935 193.944 310.935C193.401 310.935 192.948 310.753 192.677 310.482C192.405 310.21 192.224 309.848 192.224 309.395C192.224 308.943 192.315 308.399 192.586 307.584L193.039 306.226C191.862 308.218 190.867 309.486 190.052 310.12C189.418 310.572 188.785 310.844 188.151 310.844C187.427 310.844 186.884 310.572 186.341 310.029C185.888 309.486 185.617 308.671 185.617 307.675C185.617 306.317 185.888 305.049 186.522 303.782C187.156 302.514 187.88 301.428 188.694 300.613C189.509 299.798 190.233 299.164 190.957 298.802C191.681 298.44 192.405 298.259 193.13 298.259C193.492 298.259 193.854 298.349 194.125 298.44C194.397 298.621 194.759 298.892 195.121 299.254L196.116 295.904C196.388 295.09 196.479 294.546 196.479 294.184C196.479 294.003 196.388 293.822 196.207 293.641C196.026 293.46 195.845 293.46 195.573 293.46C195.483 293.46 195.302 293.46 195.121 293.46L195.302 292.916L199.918 292.102H200.552ZM194.397 300.522C194.397 299.979 194.306 299.617 194.035 299.345C193.854 299.073 193.582 298.983 193.22 298.983C192.858 298.983 192.586 299.164 192.224 299.436C191.591 299.979 190.867 301.156 190.143 302.876C189.418 304.597 189.056 306.045 189.056 307.222C189.056 307.675 189.147 307.947 189.328 308.128C189.509 308.309 189.69 308.399 189.871 308.399C190.233 308.399 190.505 308.218 190.867 307.947C191.681 307.313 192.405 306.136 193.22 304.506C193.944 302.876 194.397 301.609 194.397 300.522Z" fill="#106AA8"/>
<path d="M203.72 305.593C203.629 306.136 203.629 306.679 203.629 307.041C203.629 307.675 203.81 308.218 204.263 308.671C204.625 309.033 205.168 309.305 205.892 309.305C206.526 309.305 207.159 309.124 207.883 308.852C208.517 308.58 209.332 308.037 210.146 307.313L210.599 307.675C209.513 308.943 208.517 309.757 207.431 310.301C206.435 310.844 205.258 311.116 204.082 311.116C202.543 311.116 201.457 310.753 200.823 310.029C200.19 309.305 199.918 308.49 199.918 307.584C199.918 306.136 200.371 304.687 201.276 303.238C202.181 301.79 203.358 300.613 204.896 299.707C206.435 298.802 207.974 298.349 209.513 298.349C210.327 298.349 210.87 298.53 211.323 298.892C211.685 299.255 211.956 299.707 211.956 300.251C211.956 300.884 211.775 301.518 211.413 302.152C210.87 302.967 210.237 303.691 209.332 304.144C208.517 304.687 207.612 305.049 206.616 305.321C205.711 305.321 204.806 305.502 203.72 305.593ZM203.81 304.868C204.625 304.778 205.258 304.597 205.711 304.415C206.164 304.234 206.616 303.872 207.069 303.42C207.521 302.967 207.883 302.424 208.155 301.79C208.426 301.156 208.607 300.522 208.607 299.888C208.607 299.617 208.517 299.436 208.426 299.345C208.245 299.164 208.064 299.164 207.883 299.164C207.431 299.164 206.978 299.436 206.345 300.069C205.349 301.065 204.444 302.695 203.81 304.868Z" fill="#106AA8"/>
<path d="M228.068 292.102L223.452 307.041C223.18 307.947 223.09 308.49 223.09 308.671C223.09 308.762 223.09 308.852 223.18 308.943C223.271 309.033 223.361 309.033 223.452 309.033C223.633 309.033 223.814 308.943 223.904 308.852C224.357 308.49 224.809 307.947 225.443 307.132L225.986 307.403C225.081 308.762 224.266 309.667 223.361 310.301C222.818 310.663 222.185 310.844 221.46 310.844C220.827 310.844 220.374 310.663 220.012 310.391C219.65 310.12 219.469 309.667 219.469 309.214C219.469 308.852 219.56 308.399 219.831 307.675L223.633 295.452C223.814 294.818 223.904 294.365 223.904 294.094C223.904 293.913 223.814 293.731 223.633 293.55C223.361 293.369 222.999 293.279 222.456 293.369L222.637 292.826L227.344 292.011H228.068V292.102Z" fill="#106AA8"/>
<path d="M232.141 300.975H231.508L231.598 295.904C231.598 294.637 231.87 293.731 232.503 293.098C233.046 292.464 233.77 292.192 234.585 292.192C235.038 292.192 235.4 292.283 235.671 292.554C235.943 292.826 236.124 293.098 236.124 293.55C236.124 294.003 235.852 294.818 235.219 295.904L232.141 300.975Z" fill="#106AA8"/>
<path d="M246.533 304.778H240.649L239.473 306.136L238.115 307.675C237.843 308.037 237.662 308.309 237.572 308.58C237.481 308.762 237.391 309.033 237.391 309.214C237.391 309.395 237.481 309.667 237.753 309.848C238.024 310.029 238.387 310.12 238.93 310.12V310.572H233.318L233.499 310.12C234.042 310.029 234.404 309.848 234.857 309.576C235.4 309.214 236.124 308.49 237.119 307.403L250.515 292.192H251.149L250.515 306.951C250.515 307.766 250.515 308.218 250.515 308.309C250.515 308.943 250.606 309.305 250.877 309.667C251.149 309.939 251.602 310.12 252.145 310.12L251.964 310.572H243.727L243.908 310.12C244.723 310.029 245.175 310.029 245.266 309.939C245.537 309.848 245.718 309.576 245.99 309.124C246.171 308.761 246.352 308.037 246.352 307.041L246.533 304.778ZM246.533 303.691L246.895 297.806L241.645 303.691H246.533Z" fill="#106AA8"/>
<path d="M257.938 310.935H257.395C257.395 310.21 257.395 309.667 257.395 309.305C257.395 308.309 257.304 306.86 257.123 304.959C256.942 303.057 256.761 301.79 256.58 301.156C256.399 300.703 256.218 300.341 255.946 300.16C255.765 299.979 255.584 299.979 255.222 299.979C255.041 299.979 254.86 299.979 254.679 300.069V299.617L259.295 298.44C260.201 300.884 260.653 303.963 260.653 307.766C262.011 306.498 263.006 305.502 263.459 304.778C264.002 303.963 264.274 303.329 264.274 302.876C264.274 302.424 264.093 302.061 263.821 301.609C263.459 301.156 263.278 300.884 263.187 300.703C263.097 300.522 263.097 300.341 263.097 300.16C263.097 299.707 263.278 299.345 263.55 298.983C263.821 298.711 264.274 298.53 264.726 298.53C265.269 298.53 265.631 298.711 265.903 298.983C266.265 299.436 266.446 299.888 266.446 300.522C266.446 301.156 266.355 301.699 266.084 302.333C265.812 302.967 265.45 303.601 264.907 304.415C264.364 305.23 263.731 305.955 263.097 306.588C262.011 307.494 260.291 309.033 257.938 310.935Z" fill="#106AA8"/>
<path d="M271.153 305.593C271.062 306.136 271.062 306.679 271.062 307.041C271.062 307.675 271.243 308.218 271.696 308.671C272.058 309.033 272.601 309.305 273.325 309.305C273.959 309.305 274.592 309.124 275.316 308.852C275.95 308.58 276.765 308.037 277.579 307.313L278.032 307.675C276.946 308.943 275.95 309.757 274.864 310.301C273.868 310.844 272.691 311.116 271.515 311.116C269.976 311.116 268.89 310.753 268.256 310.029C267.623 309.305 267.351 308.49 267.351 307.584C267.351 306.136 267.804 304.687 268.709 303.238C269.614 301.79 270.791 300.613 272.329 299.707C273.868 298.802 275.407 298.349 276.946 298.349C277.76 298.349 278.303 298.53 278.756 298.892C279.118 299.255 279.389 299.707 279.389 300.251C279.389 300.884 279.208 301.518 278.846 302.152C278.303 302.967 277.67 303.691 276.765 304.144C275.95 304.687 275.045 305.049 274.049 305.321C273.234 305.321 272.329 305.502 271.153 305.593ZM271.243 304.868C272.058 304.778 272.691 304.597 273.144 304.415C273.597 304.234 274.049 303.872 274.502 303.42C274.954 302.967 275.316 302.424 275.588 301.79C275.859 301.156 276.04 300.522 276.04 299.888C276.04 299.617 275.95 299.436 275.859 299.345C275.678 299.164 275.497 299.164 275.316 299.164C274.864 299.164 274.411 299.436 273.778 300.069C272.782 301.065 271.967 302.695 271.243 304.868Z" fill="#106AA8"/>
<path d="M286.993 298.259L285.273 303.963C286.45 302.333 287.264 301.156 287.898 300.522C288.712 299.617 289.437 299.073 290.07 298.711C290.704 298.349 291.247 298.259 291.79 298.259C292.243 298.259 292.695 298.44 293.057 298.802C293.419 299.164 293.6 299.617 293.6 300.16C293.6 300.613 293.51 301.246 293.238 301.971L291.428 307.675C291.247 308.128 291.247 308.49 291.247 308.671C291.247 308.762 291.247 308.852 291.337 308.943C291.428 309.033 291.518 309.033 291.518 309.033C291.609 309.033 291.699 309.033 291.79 308.943C292.152 308.671 292.424 308.309 292.786 307.856C292.876 307.766 292.967 307.584 293.148 307.313L293.691 307.584C292.333 309.758 290.885 310.844 289.346 310.844C288.803 310.844 288.35 310.663 287.988 310.391C287.626 310.12 287.536 309.757 287.536 309.305C287.536 308.943 287.626 308.399 287.898 307.675L289.618 301.971C289.708 301.609 289.799 301.337 289.799 301.156C289.799 301.065 289.799 300.975 289.708 300.884C289.618 300.794 289.527 300.794 289.437 300.794C289.075 300.794 288.622 301.065 288.169 301.518C286.902 302.695 285.635 304.415 284.458 306.77L283.282 310.753H279.752L282.377 302.242C282.648 301.428 282.739 300.794 282.739 300.432C282.739 300.251 282.739 300.16 282.648 300.069C282.558 299.979 282.467 299.888 282.286 299.798C282.105 299.707 281.833 299.707 281.381 299.707L281.562 299.164L286.269 298.349H286.993V298.259Z" fill="#106AA8"/>
<path d="M302.561 298.259L299.665 307.675C299.484 308.218 299.393 308.58 299.393 308.762C299.393 308.852 299.393 308.943 299.484 309.033C299.574 309.124 299.665 309.124 299.755 309.124C299.936 309.124 300.027 309.033 300.208 308.943C300.66 308.58 301.113 308.037 301.746 307.132L302.199 307.403C300.751 309.757 299.303 310.935 297.673 310.935C297.04 310.935 296.587 310.753 296.225 310.482C295.863 310.12 295.682 309.757 295.682 309.214C295.682 308.852 295.773 308.49 295.954 307.947L297.854 301.609C298.035 300.975 298.126 300.522 298.126 300.25C298.126 300.069 298.035 299.888 297.854 299.707C297.673 299.526 297.402 299.526 297.13 299.526C296.949 299.526 296.859 299.526 296.587 299.526L296.768 298.983L301.475 298.259H302.561ZM301.746 292.102C302.29 292.102 302.833 292.283 303.195 292.645C303.557 293.007 303.828 293.46 303.828 294.003C303.828 294.546 303.647 294.999 303.195 295.361C302.833 295.723 302.29 295.904 301.746 295.904C301.203 295.904 300.751 295.723 300.298 295.361C299.936 294.999 299.665 294.546 299.665 294.003C299.665 293.46 299.846 293.007 300.298 292.645C300.66 292.283 301.113 292.102 301.746 292.102Z" fill="#106AA8"/>
<path d="M309.983 298.259L307.901 305.683C309.621 302.061 310.979 299.798 311.794 298.983C312.337 298.53 312.88 298.259 313.423 298.259C313.785 298.259 314.147 298.349 314.328 298.621C314.599 298.892 314.69 299.255 314.69 299.798C314.69 300.613 314.509 301.337 314.056 301.971C313.785 302.333 313.423 302.514 313.151 302.514C312.789 302.514 312.518 302.333 312.337 302.061C312.156 301.699 312.065 301.518 311.975 301.518C311.884 301.428 311.794 301.428 311.703 301.428C311.612 301.428 311.522 301.428 311.431 301.518C311.25 301.609 310.979 301.88 310.617 302.333C310.255 302.786 309.893 303.419 309.44 304.415C308.988 305.411 308.535 306.226 308.354 306.86C308.082 307.494 307.72 308.762 307.268 310.663H303.919L306.182 301.88C306.363 301.246 306.453 300.794 306.453 300.613C306.453 300.341 306.453 300.16 306.363 300.069C306.272 299.979 306.182 299.798 306.001 299.798C305.82 299.707 305.548 299.707 305.005 299.707L305.095 299.345L309.35 298.44H309.983V298.259Z" fill="#106AA8"/>
<defs>
<linearGradient id="paint0_linear" x1="-2.09941e-06" y1="195.989" x2="402.502" y2="195.989" gradientUnits="userSpaceOnUse">
<stop stop-color="#E9E9EA"/>
<stop offset="1" stop-color="#FFFEFE"/>
</linearGradient>
<linearGradient id="paint1_linear" x1="-2.65328e-06" y1="190" x2="402" y2="190" gradientUnits="userSpaceOnUse">
<stop stop-color="#FAF9F8"/>
<stop offset="1" stop-color="#EEEEEE"/>
</linearGradient>
</defs>
</svg>
