<svg width="19" height="19" viewBox="0 0 19 19" fill="none" xmlns="http://www.w3.org/2000/svg">
<path d="M 1.7596 3.025 H 6.7096 C 7.5848 3.025 8.4242 3.3727 9.043 3.9915 C 9.6619 4.6104 10.0096 5.4498 10.0096 6.325 V 17.875 C 10.0096 17.2186 9.7488 16.5891 9.2847 16.1249 C 8.8205 15.6608 8.191 15.4 7.5346 15.4 H 1.7596 V 3.025 Z" stroke="#2C323F" stroke-width="1.2" stroke-linecap="round" stroke-linejoin="round"/>
<path d="M 18.2596 3.025 H 13.3096 C 12.4344 3.025 11.595 3.3727 10.9761 3.9915 C 10.3572 4.6104 10.0096 5.4498 10.0096 6.325 V 17.875 C 10.0096 17.2186 10.2703 16.5891 10.7345 16.1249 C 11.1987 15.6608 11.8282 15.4 12.4846 15.4 H 18.2596 V 3.025 Z" stroke="#2C323F" stroke-width="1.2" stroke-linecap="round" stroke-linejoin="round"/>
</svg>
